<svg xmlns="http://www.w3.org/2000/svg" width="1200" height="1624" viewBox="0 0 1200 1624"><path fill="#DCDCDC" d="M226.065 855.445l-63.41-29.76a12.028 12.028 0 0 0 1.18-5.215c0-3.038-1.12-5.815-2.97-7.94l73.485-92.3a14.47 14.47 0 0 0 9.376 3.43l.319-.005-17.98 131.79zm287.45 135.991l8.795 4.125a7.302 7.302 0 0 0-.175 1.59c0 1.449.424 2.797 1.155 3.93l-3.455 3.93-6.32-13.575zm-409.6-381.561l128.295 90.41a14.456 14.456 0 0 0-3.011 8.854c0 2.825.805 5.461 2.2 7.691L-10.61 844.75 97.45 612.255a7.249 7.249 0 0 0 6.465-2.38zm245.99-125.535l-54.779-74.9 87.185 3.325a12.135 12.135 0 0 0 5.641 6.845l-38.047 64.73zM199.85 404.805l-22.63-146.31a14.475 14.475 0 0 0 4.68-2.185l111.2 152.05-93.25-3.555zm-.865.965l44.686 288.845a14.492 14.492 0 0 0-10.82 4.9L104.525 609.08a7.266 7.266 0 0 0-5.574-11.26L71.395 408.755a7.266 7.266 0 0 0 5.255-7.655l122.335 4.67zM315.3 279.17l440.05 103.305a14.47 14.47 0 0 0-.795 4.33l-348.825 24.43c.132-.716.199-1.455.199-2.209 0-6.684-5.419-12.102-12.104-12.102a12.06 12.06 0 0 0-8.034 3.046L315.3 279.17zm-128.025-30.055l126.69 29.74 71.085 121.83a12.06 12.06 0 0 0-3.33 8.34c0 .937.108 1.849.31 2.725l-87.654-3.34-111.681-152.705a14.556 14.556 0 0 0 4.58-6.59zM445.4 29.93L257.15 179.52l-51.944-89.025a14.484 14.484 0 0 0 4.627-10.626c0-1.213-.147-2.393-.428-3.519l233.15-51.835a12.08 12.08 0 0 0 2.845 5.415zM273.13 208.88l-85.65 31.545a14.384 14.384 0 0 0-1.35-3.19l70.745-56.215 16.255 27.86zm504.69 166.77l46.966-106.715 47.534 26.67a7.232 7.232 0 0 0-1.568 4.508c0 1.504.46 2.898 1.244 4.057l-91.155 74.56a14.63 14.63 0 0 0-3.021-3.08zm-487.605-137.5l-102.17 6.2a14.573 14.573 0 0 0-.32-2.945l85.92-31.646 16.57 28.391zm432.88-26.265l-431.775 26.2-16.73-28.675 263.035-96.88a7.26 7.26 0 0 0 6.298 3.643 7.23 7.23 0 0 0 4.997-1.993l174.175 97.705zm129.155-7.835l-127.315 7.725-175.32-98.355a7.21 7.21 0 0 0 1.489-3.41l341.44-25.035c.105 4.877 3.097 9.042 7.335 10.86L852.25 204.05zm-125.7 8.63l125.25-7.6-27.485 62.445-97.765-54.845zm-434.665 26.37l432.82-26.26 99.205 55.655-46.926 106.62a14.462 14.462 0 0 0-7.913-2.344c-5.993 0-11.138 3.628-13.356 8.809l-441.11-103.55-22.72-38.93zm-103.87 6.3l102.76-6.235 22.495 38.55-125.705-29.51c.238-.904.39-1.842.45-2.805zM915.56 89.95l165.665 100.21-227.85 13.82 47.439-107.79a12.112 12.112 0 0 0 14.746-6.24zm199.139 741.17l-52.22 19.985-18.635-29.971 70.855 9.986zm3.965-.445l31.671-12.12 16.54 18.915-48.211-6.795zM387.555 932.33L184.78 1220.395a14.456 14.456 0 0 0-7.085-2.895l49.186-360.57 160.674 75.4zM519.75 746.26l10.04-14.265 12.79 17.485-22.83-3.22zM389.06 931.925l56.34-80.04c22.38 45.518 44.48 91.363 66.04 137.471l-122.38-57.431zm189.21 203.28l45.775-11.439c-8.274 16.1-16.431 32.801-24.44 49.939a7.264 7.264 0 0 0-7.263-7.136c-.218 0-.434.007-.647.026a4469.038 4469.038 0 0 0-13.425-31.39zm-132.985-285.82l.435.301-.17.244-.265-.545zm-190.92-130.36l189.24 129.209 1.29 2.625-56.755 80.636-161.12-75.604L245.065 723.6a14.483 14.483 0 0 0 9.3-4.575zm527.02 364.39l-5.515-8.295 10.37 7.08-4.855 1.215zm-7.71-9.795l6.68 10.05-154.41 38.59c20.639-39.991 41.992-76.195 63.601-106.085l84.129 57.445zm-51.73-77.825L772.2 1071.4l-82.07-56.035c5.499-7.576 11.017-14.742 16.54-21.455a14.464 14.464 0 0 0 9.141 3.24c2.193 0 4.27-.486 6.134-1.355zm-305.11 126.325l-226.931 105.8a14.522 14.522 0 0 0-4.35-6.885l202.92-288.275L512.1 990.77l7.016 15.061-102.281 116.289zm128.16-59.755l-125.9 58.699 100.48-114.244.851 1.838a5787.096 5787.096 0 0 1 24.569 53.707zm126.1-58.79l-125.195 58.37a5774.879 5774.879 0 0 0-24.566-53.707l-1.038-2.238 3.609-4.1a7.262 7.262 0 1 0-1.305-7.311l-9.745-4.57c-21.801-46.646-44.159-93.021-66.8-139.064l.495-.705 224.545 153.325zm2.01.165l30.035-14.006a14.62 14.62 0 0 0 2.775 3.521c-5.548 6.741-11.088 13.937-16.61 21.545l-16.2-11.06zm-126.795 59.115l125.745-58.625 16.665 11.379c-21.773 30.122-43.286 66.641-64.065 106.971l-46.789 11.695a5032.455 5032.455 0 0 0-31.556-71.42zm-128.86 60.081l127.954-59.66a4996.472 4996.472 0 0 1 31.48 71.244l-217.42 54.34 57.986-65.924zm-227.3 105.974l225.04-104.92-57.43 65.295-167.32 41.82a14.527 14.527 0 0 0-.29-2.195zm88.105 52.285l236.26 102.93c-30.301 85.402-54.723 166.376-70.104 225.68a7.25 7.25 0 0 0-2.167-.326 7.25 7.25 0 0 0-5.773 2.861L59.515 1468.995c.146-.749.219-1.521.219-2.312a12.09 12.09 0 0 0-5.448-10.112l115.734-211.386a14.482 14.482 0 0 0 5.32 1.24l13.155 128.3-.452-.012a7.261 7.261 0 1 0 0 14.522 7.263 7.263 0 0 0 7.264-7.262 7.23 7.23 0 0 0-1.642-4.603l84.59-96.175zm-91.32-39.785l90.355 39.365-84.315 95.864a7.245 7.245 0 0 0-3.46-1.779l-13.17-128.426a14.503 14.503 0 0 0 10.59-5.024zm509.69 226.885l-248.59 144.061a7.291 7.291 0 0 0-2.686-2.186c15.377-59.301 39.794-140.264 70.085-225.645l181.665 79.14a7.228 7.228 0 0 0-.474 4.63zM981.96 1214.63l81.449-2.18-28.75 38.165-52.699-35.985zm-111.38 2.985l109.675-2.94 53.8 36.74-66.925 88.84a12.085 12.085 0 0 0-9.225-4.267c-2.658 0-5.114.859-7.11 2.312l-80.215-120.685zm-577.73 45.475l-103.274-26.14c.134-.365.255-.737.359-1.115l129.94-3.479-27.025 30.734zm243.465 61.625l-242.38-61.35 27.305-31.045 255.146-6.83c-14.002 32.485-27.42 65.891-40.071 99.225zm129.195 32.7l-128.22-32.455c12.689-33.433 26.149-66.932 40.194-99.5l37.11-.99c17.925 44.194 34.97 88.527 50.916 132.945zM536.935 1325.9l128.985 32.649c12.142 33.86 23.643 67.77 34.405 101.705a7.298 7.298 0 0 0-2.745 2.53l-181.81-79.204a2912.54 2912.54 0 0 1 21.165-57.68zm-243.74-61.69l242.766 61.445a2905.606 2905.606 0 0 0-21.11 57.524L278.95 1280.405l14.245-16.195zm-104.005-26.325l102.915 26.05-14.12 16.051-90.399-39.386a14.547 14.547 0 0 0 1.604-2.715zm131.59-6.555l-130.604 3.5c.178-.873.276-1.777.29-2.7l166.13-41.521-35.816 40.721zm256.04-6.85l-254.68 6.814 36.16-41.109 218.985-54.735a4563.353 4563.353 0 0 1 13.39 31.31 7.262 7.262 0 1 0 5.56 13.2l.221.521a1894.313 1894.313 0 0 0-19.636 43.999zm37.375-1l-36.274.97a1907.27 1907.27 0 0 1 19.06-42.72 4155.336 4155.336 0 0 1 17.214 41.75zm254.555-6.815l-253.485 6.785a4100.999 4100.999 0 0 0-17.715-42.95c9.082-19.643 18.357-38.746 27.785-57.061l155.604-38.89 87.811 132.116zm110.095-2.95l-108.915 2.92-87.96-132.34 5.37-1.345 191.505 130.765zm158.135-218.151l17.665 5.65 30.705 49.385-121.17 160.83-83.625 2.24-191.915-131.044 348.34-87.061zM892.35 917.28l242.83 77.71-347.64 86.885-13.146-8.975-51.55-77.565c4.468-2.477 7.491-7.237 7.491-12.706 0-1.104-.123-2.18-.356-3.214L892.35 917.28zm-163.745-52.4l162.23 51.915-161.11 61.65a14.56 14.56 0 0 0-10.77-10l9.65-103.565zM597.55 822.945l130.08 41.625-9.66 103.695a14.64 14.64 0 0 0-2.159-.158 14.475 14.475 0 0 0-9.506 3.543L597.55 822.945zM762.025 495.31l-92.88 38.71L763.13 400.5a14.487 14.487 0 0 0 5.941 1.265c.566 0 1.125-.031 1.674-.095l-8.72 93.64zm61.98-25.83l-60.936 25.395 8.695-93.36a14.507 14.507 0 0 0 7.521-3.95l44.72 71.915zm15.405-6.42l-14.471 6.03-44.944-72.275c.247-.281.484-.575.71-.875l58.705 67.12zm31.625-13.18l-30.65 12.775-59.09-67.561c.447-.693.835-1.427 1.16-2.195l88.58 56.981zm70.825-29.515l-69.71 29.05-89.33-57.47c.354-1.033.593-2.117.705-3.24l158.335 31.66zm-116.385 49.59l14.63-6.1 309.53 353.9-33.016 12.63-73.465-10.354-217.679-350.076zm-62.51 26.05l61.575-25.66 217.324 349.505-305.06-42.995 26.161-280.85zm-94.9 39.55l93.855-39.115-26.105 280.275-191.854-27.04L530.4 731.13l137.665-195.575zm-215.13 89.655l213.4-88.935-136.56 194.005-76.84-105.07zm-99.375 41.415l98.42-41.02 77.186 105.54-10.53 14.96-134.37-18.94-30.706-60.54zm-95.555 39.825l94.625-39.44 30.43 59.985-124.81-17.59.001-.267c0-.918-.083-1.817-.246-2.688zm140.83 51.85l-141.141-45.17c.251-.877.419-1.789.5-2.725l125.415 17.68 15.226 30.215zm90.77 29.045l-89.435-28.62-15.355-30.47 133.176 18.77-28.386 40.32zm105.315 33.7l-104.315-33.38L519.1 747.18l24.305 3.425 51.515 70.44zm132.805 42.5l-131.185-41.98-51.755-70.765 190.935 26.91-7.995 85.835zm164.61 52.675L728.7 863.855l8.01-86.005 305.845 43.105 18.975 30.515-169.195 64.75zm244.699 78.305l-243.18-77.82 168.215-64.37 86.601 139.28-11.636 2.91zm16.79 5.375l-14.989-4.801 10.39-2.595 4.599 7.396zm69.329 22.187l-67.857-21.717-5.051-8.12 31.721-7.926-.243-.971-32.032 8.006-86.67-139.39 53.725-20.56 51.136 7.21 25.692 29.376.752-.659-24.93-28.502 53.535 7.544.14-.99-54.68-7.703-17.061-19.511 71.849-27.49-.357-.934-72.19 27.625L841.08 463.45l30.975-12.91 338.674 217.88.541-.841-338.095-217.504 70.444-29.36 264.757 52.938.196-.98-263.302-52.648 248.871-103.718-.385-.923-250.241 104.291L783.59 387.7l.008-.457c0-1.253-.159-2.469-.458-3.628l410.944-115.694-.271-.962-410.958 115.696a14.372 14.372 0 0 0-1.455-3.09l91.21-74.605a7.262 7.262 0 1 0 .405-10.116l-47.825-26.83 27.73-63.005 229.81-13.939 110.96 67.116.518-.856-109.723-66.366 139.545-8.466-.061-.998-140.989 8.554L915.96 89.025a12.252 12.252 0 0 0 .625-6.319l315.475-38.209-.12-.992L916.38 81.72c-1.332-5.237-6.082-9.112-11.735-9.112-6.438 0-11.704 5.027-12.085 11.367L551.185 109l.001-.088a7.262 7.262 0 0 0-7.263-7.261 7.262 7.262 0 0 0-6.739 9.974L274.08 208.53l-16.42-28.135 188.45-149.75a12.058 12.058 0 0 0 8.238 3.239c6.686 0 12.105-5.418 12.105-12.102s-5.42-12.101-12.105-12.101c-6.685 0-12.104 5.417-12.104 12.101 0 .594.044 1.177.127 1.748L209.13 75.385c-1.889-5.827-7.365-10.038-13.823-10.038-8.022 0-14.526 6.501-14.526 14.522 0 8.02 6.504 14.521 14.526 14.521 3.46 0 6.639-1.211 9.133-3.23l51.925 88.985L185.6 236.38a14.514 14.514 0 0 0-12.082-6.454c-2.724 0-5.274.75-7.453 2.054L27.51 27.505c4.752-2.387 8.014-7.304 8.014-12.983C35.524 6.501 29.021 0 20.998 0S6.472 6.501 6.472 14.521c0 8.021 6.504 14.521 14.526 14.521 1.981 0 3.871-.395 5.592-1.113l138.635 204.595c-3.768 2.624-6.232 6.984-6.232 11.922 0 8.02 6.503 14.521 14.525 14.521.932 0 1.84-.086 2.722-.254l22.591 146.05-122.346-4.67a7.265 7.265 0 0 0-7.067-5.591 7.261 7.261 0 1 0 0 14.522c.337 0 .668-.021.993-.065L97.94 597.825a7.26 7.26 0 0 0-1.489 14.215L-11.265 843.795a7.258 7.258 0 0 0-6.472-3.962 7.262 7.262 0 1 0 0 14.522 7.262 7.262 0 0 0 7.158-8.49l242.545-128.2a14.615 14.615 0 0 0 1.64 1.89l-73.435 92.24a12.065 12.065 0 0 0-8.44-3.425c-6.686 0-12.105 5.417-12.105 12.101s5.42 12.102 12.105 12.102c4.459 0 8.355-2.413 10.455-6.002l63.74 29.914-49.23 360.931a14.498 14.498 0 0 0-11.944 5.24L75.37 1114.18a12.098 12.098 0 0 0 6.151-10.537c0-6.684-5.42-12.102-12.104-12.102-6.686 0-12.104 5.418-12.104 12.102s5.419 12.102 12.104 12.102c1.8 0 3.508-.395 5.043-1.1l89.665 108.82a14.457 14.457 0 0 0-2.712 8.451c0 5.558 3.12 10.389 7.707 12.829l-115.695 211.31a12.062 12.062 0 0 0-5.797-1.474c-6.685 0-12.104 5.418-12.104 12.102s5.42 12.102 12.104 12.102c5.543 0 10.217-3.727 11.651-8.81l376.625 143.221a7.262 7.262 0 0 0 6.339 10.805 7.262 7.262 0 0 0 7.263-7.261c0-1.288-.333-2.5-.921-3.549l248.34-143.91a7.262 7.262 0 1 0 4.32-9.431c-10.689-33.701-22.106-67.378-34.155-101.005l543.787 137.64.245-.969-544.437-137.806c-15.975-44.529-33.057-88.966-51.02-133.27l253.734-6.796 80.61 121.275a12.073 12.073 0 0 0-4.209 9.17c0 6.683 5.419 12.101 12.104 12.101s12.104-5.418 12.104-12.101c0-2.618-.832-5.04-2.245-7.02l67.12-89.09 146.677 100.152.563-.826-146.633-100.125 29.2-38.765 146.323-3.915-.026-1-145.526 3.895 120.454-159.885 11.661 18.754.849-.527-11.864-19.081 16.839-22.354-.799-.602-16.605 22.046-29.885-48.06 66.737 21.354.305-.953zM457.84 834.21l244.48 143.024a14.472 14.472 0 0 0-1.034 5.395c0 2.225.5 4.332 1.395 6.216l-30.535 14.24-225.02-153.649 10.714-15.226zm-28.205-16.5l27.335 15.99-10.675 15.17-1.905-1.3-14.755-29.86zM256.35 716.33l171.705 100.455 14.655 29.64-187.686-128.16c.492-.607.936-1.254 1.326-1.935zm86.78-67.975l-86.99 53.235a14.522 14.522 0 0 0-11.455-6.94l-44.68-288.84 93.85 3.58 55.5 75.89-43.93 74.755a7.262 7.262 0 1 0-3.597 13.569 7.245 7.245 0 0 0 2.861-.583l38.441 75.334zm86.685-53.055l-85.83 52.53-38.404-75.265a7.263 7.263 0 0 0 3.511-6.222 7.246 7.246 0 0 0-2.831-5.753L350 486.16l79.815 109.14zm327.06-200.165L430.68 594.77l-80.13-109.55 38.295-65.16a12.048 12.048 0 0 0 4.979 1.067c5.566 0 10.257-3.756 11.671-8.872l349.06-24.45a14.432 14.432 0 0 0 2.32 7.33zM431.27 595.58l326.175-199.625a14.598 14.598 0 0 0 4.775 4.1L667.415 534.74 452.33 624.38l-21.06-28.8zm-86.83 53.14l85.965-52.61 20.971 28.67-98.271 40.955-8.665-17.015zm-87.81 53.74l86.955-53.215 8.595 16.875-94.395 39.34a14.452 14.452 0 0 0-1.155-3zm170.615 112.69l-170.431-99.706c.213-.441.402-.895.57-1.36l142.08 45.47 27.781 55.596zm30.305 17.73l-28.73-16.81-28.02-56.09 88.2 28.225-31.45 44.675zm245.175 143.434L458.42 833.391 490 788.525l105.93 33.9 109.635 149.91a14.573 14.573 0 0 0-2.84 3.979z"/></svg>