<svg width="251" height="12" viewBox="0 0 251 12" xmlns="http://www.w3.org/2000/svg"><title>logo--inverted</title><path d="M.5 11.21V.794h3.135L6.12 6.259 8.52.793h3.084v10.418H8.485V4.604h-.052l-2.93 6.607h-.377L2.18 4.668h-.034v6.543H.5zM21.575.793h1.645v7.235a3.407 3.407 0 0 1-.425 1.707c-.289.524-.762.947-1.418 1.268-.656.322-1.533.488-2.63.497-.938-.01-1.735-.18-2.39-.513-.654-.332-1.153-.771-1.496-1.316a3.321 3.321 0 0 1-.517-1.788V.793h3.119V7.77c-.002.613.169 1.104.512 1.473.343.37.869.56 1.578.569.707-.01 1.221-.2 1.544-.569.323-.369.482-.86.478-1.473V.793zm3.668 8.614l1.56-.9c.194.389.456.743.785 1.064.33.321.741.492 1.236.511.45-.004.801-.117 1.054-.34.253-.223.381-.533.385-.93-.013-.359-.18-.652-.502-.88a5.896 5.896 0 0 0-1.199-.63 15.387 15.387 0 0 1-1.43-.667 3.737 3.737 0 0 1-1.198-.993c-.322-.41-.49-.944-.503-1.605.018-1.083.372-1.94 1.065-2.57C27.188.836 28.112.514 29.27.5c.879-.002 1.613.163 2.204.496.59.334 1.106.849 1.548 1.546l-1.25.916a4.56 4.56 0 0 0-.832-1.073c-.318-.3-.749-.456-1.294-.47-.444.006-.772.13-.985.37-.213.24-.318.556-.317.948.014.355.184.642.513.86.33.22.737.422 1.224.605.487.185.974.402 1.46.652.488.25.896.585 1.225 1.003.329.417.5.97.513 1.655-.008.736-.187 1.364-.537 1.883-.35.52-.826.916-1.428 1.191-.601.274-1.283.412-2.044.414-.914.008-1.7-.152-2.36-.478-.661-.326-1.216-.863-1.667-1.611zm17.542 1.803h-7.264V.794h7.059v1.415h-3.94V5.15h3.734v1.415H38.64v3.23h4.146v1.416zm5.088-5.208c-.004.408.027.852.092 1.334.065.482.186.944.364 1.385.177.44.432.802.765 1.086.333.283.765.43 1.298.44.531-.01.963-.157 1.297-.44a2.74 2.74 0 0 0 .765-1.086c.178-.44.299-.903.364-1.385s.096-.926.092-1.334a9.425 9.425 0 0 0-.092-1.335 5.736 5.736 0 0 0-.364-1.384 2.738 2.738 0 0 0-.765-1.086c-.334-.283-.766-.43-1.297-.44-.533.01-.965.157-1.298.44a2.734 2.734 0 0 0-.765 1.086c-.178.44-.299.902-.364 1.384a9.38 9.38 0 0 0-.092 1.335zm-3.393 0c.011-1.03.276-1.958.794-2.783A5.634 5.634 0 0 1 47.38 1.25c.888-.487 1.891-.736 3.01-.748 1.12.012 2.123.26 3.01.747a5.632 5.632 0 0 1 2.11 1.971c.518.825.782 1.753.794 2.783-.012 1.03-.276 1.957-.794 2.783a5.63 5.63 0 0 1-2.108 1.968c-.887.486-1.89.736-3.01.747-1.119-.011-2.122-.26-3.01-.747a5.632 5.632 0 0 1-2.107-1.968c-.518-.826-.783-1.754-.794-2.783zm18.33-3.794V.793h9.116v1.415h-2.999v9.003H65.81V2.208h-3zm14.014 9.002h-3.118V.794h3.118V5.15h3.324V.793h3.119v10.418h-3.119V6.565h-3.324v4.646zm13.929-6.606L93.067.793h1.627l-3.221 5.241v5.177h-3.119V6.227L85.014.793h3.46l2.28 3.81zm4.694 4.803l1.56-.9c.194.389.456.743.785 1.064.33.321.742.492 1.236.511.45-.004.801-.117 1.054-.34.253-.223.381-.533.386-.93-.013-.359-.18-.652-.503-.88a5.901 5.901 0 0 0-1.198-.63 15.392 15.392 0 0 1-1.43-.667 3.736 3.736 0 0 1-1.199-.993c-.322-.41-.49-.944-.502-1.605.017-1.083.372-1.94 1.064-2.57.692-.631 1.617-.953 2.774-.967.879-.002 1.614.163 2.204.496.59.334 1.106.849 1.549 1.546l-1.252.916a4.562 4.562 0 0 0-.83-1.073c-.318-.3-.75-.456-1.294-.47-.444.006-.772.13-.985.37-.213.24-.319.556-.317.948.013.355.184.642.513.86.329.22.737.422 1.224.605.486.185.974.402 1.46.652.487.25.895.585 1.224 1.003.33.417.5.97.513 1.655-.007.736-.186 1.364-.537 1.883-.35.52-.826.916-1.427 1.191-.602.274-1.284.412-2.045.414-.913.008-1.7-.152-2.36-.478-.66-.326-1.216-.863-1.667-1.611zm9.37 0l1.56-.9c.194.389.456.743.785 1.064.33.321.741.492 1.236.511.45-.004.801-.117 1.054-.34.252-.223.38-.533.385-.93-.013-.359-.18-.652-.502-.88a5.904 5.904 0 0 0-1.198-.63 15.38 15.38 0 0 1-1.43-.667 3.736 3.736 0 0 1-1.2-.993c-.321-.41-.489-.944-.502-1.605.018-1.083.373-1.94 1.065-2.57.692-.631 1.617-.953 2.773-.967.88-.002 1.614.163 2.204.496.59.334 1.107.849 1.55 1.546l-1.252.916a4.568 4.568 0 0 0-.83-1.073c-.319-.3-.75-.456-1.294-.47-.445.006-.773.13-.986.37-.213.24-.318.556-.317.948.013.355.184.642.513.86.33.22.737.422 1.224.605.487.185.974.402 1.46.652.488.25.896.585 1.225 1.003.329.417.5.97.513 1.655-.008.736-.187 1.364-.537 1.883-.35.52-.826.916-1.428 1.191-.601.274-1.283.412-2.045.414-.913.008-1.7-.152-2.36-.478-.66-.326-1.216-.863-1.666-1.611zm17.543 1.803h-7.265V.794h7.059v1.415h-3.941V5.15h3.735v1.415h-3.735v3.23h4.147v1.416zm2.362 0V.794h3.479l3.7 5.257h.034V.793h1.646v10.418h-1.8l-5.38-7.653h-.034v7.653h-1.645zm15.315-5.952v1.495h-4.164V5.258h4.164zm2.221-4.465h5.33a6.215 6.215 0 0 1 1.811.315c.573.192 1.043.49 1.409.897.365.406.554.94.566 1.601-.013.63-.23 1.155-.652 1.574-.423.419-.97.666-1.644.742v.032a4.51 4.51 0 0 1 1.339.494c.41.233.743.53.995.891.254.362.384.784.39 1.267-.02.696-.237 1.232-.65 1.612-.412.379-.895.64-1.447.785-.55.145-1.045.215-1.483.208h-5.964V.793zm3.12 5.723v3.376h1.319c.468.006.867-.117 1.197-.368.329-.25.501-.658.516-1.223-.015-.546-.208-.978-.578-1.296-.37-.319-.829-.482-1.375-.489h-1.08zm0-4.405v3.087h1.164c.488.003.875-.116 1.165-.356.29-.24.438-.62.446-1.139-.006-.51-.166-.901-.48-1.176-.315-.274-.748-.413-1.302-.416h-.993zm11.275 3.891a9.21 9.21 0 0 0 .092 1.334c.066.482.187.944.364 1.385.177.44.433.802.766 1.086.332.283.765.43 1.297.44.532-.01.963-.157 1.297-.44a2.73 2.73 0 0 0 .764-1.086c.179-.44.3-.903.365-1.385s.095-.926.092-1.334a9.555 9.555 0 0 0-.092-1.335 5.752 5.752 0 0 0-.365-1.384 2.728 2.728 0 0 0-.764-1.086c-.334-.283-.765-.43-1.297-.44-.532.01-.965.157-1.297.44a2.73 2.73 0 0 0-.766 1.086c-.177.44-.298.902-.364 1.384a9.217 9.217 0 0 0-.092 1.335zm-3.392 0c.01-1.03.275-1.958.793-2.783a5.633 5.633 0 0 1 2.108-1.968c.887-.487 1.89-.736 3.01-.748 1.119.012 2.123.26 3.01.747a5.64 5.64 0 0 1 2.107 1.969c.518.825.783 1.753.794 2.783-.011 1.03-.276 1.957-.794 2.783a5.638 5.638 0 0 1-2.107 1.968c-.887.486-1.891.736-3.01.747-1.12-.011-2.123-.26-3.01-.747a5.63 5.63 0 0 1-2.108-1.968c-.518-.826-.782-1.754-.793-2.783zm17.219 5.208h-3.12V.794h5.586a4.814 4.814 0 0 1 1.845.376 3.83 3.83 0 0 1 1.485 1.07c.394.464.597 1.022.611 1.673-.016.751-.266 1.37-.752 1.857-.485.486-1.109.816-1.87.989l2.691 4.453h-3.53l-2.759-5.306h.343a5.58 5.58 0 0 0 1.336-.126c.4-.09.717-.277.955-.557.237-.28.359-.702.365-1.262-.013-.593-.206-1.059-.58-1.397-.375-.337-.856-.51-1.442-.516h-1.165v9.164zm8.55 0V.794h3.478l3.701 5.257h.034V.793h1.645v10.418h-1.799l-5.38-7.653h-.034v7.653h-1.645zm19.238 0h-7.264V.794h7.059v1.415h-3.941V5.15h3.735v1.415h-3.735v3.23h4.146v1.416zm2.192 0V.794h3.136l2.484 5.466 2.4-5.467h3.084v10.418h-3.118V4.604h-.052l-2.93 6.607h-.377l-2.947-6.543h-.035v6.543h-1.644zm13.998 0V.794h3.119v10.418h-3.119zm5.342-1.803l1.56-.9c.194.389.456.743.786 1.064.329.321.74.492 1.236.511.449-.004.8-.117 1.053-.34.252-.223.381-.533.386-.93-.013-.359-.18-.652-.503-.88a5.891 5.891 0 0 0-1.199-.63 15.522 15.522 0 0 1-1.43-.667 3.728 3.728 0 0 1-1.197-.993c-.323-.41-.49-.944-.503-1.605.018-1.083.372-1.94 1.064-2.57.692-.631 1.617-.953 2.773-.967.88-.002 1.615.163 2.205.496.59.334 1.106.849 1.548 1.546l-1.25.916a4.577 4.577 0 0 0-.831-1.073c-.318-.3-.75-.456-1.295-.47-.443.006-.772.13-.984.37-.213.24-.32.556-.317.948.013.355.184.642.512.86.33.22.738.422 1.224.605.487.185.975.402 1.461.652.487.25.895.585 1.224 1.003.329.417.5.97.513 1.655-.008.736-.187 1.364-.536 1.883-.351.52-.826.916-1.428 1.191-.602.274-1.284.412-2.046.414-.912.008-1.699-.152-2.36-.478-.66-.326-1.216-.863-1.666-1.611zm9.542-7.199V.793h9.475l-5.433 9.003h5.072v1.415h-9.491l5.499-9.003h-5.122zm14.527.948l-1.267 3.617h2.723l-1.421-3.617h-.035zm-2.862 8.055h-1.61L243.235.793h3.119l4.146 10.418h-3.461l-1.216-3.023h-3.735l-1.08 3.023z" fill="#FFF" fill-rule="evenodd"/></svg>