<svg xmlns="http://www.w3.org/2000/svg" width="205.125" height="10" viewBox="-375.062 301 205.125 10"><title>logo--inverted</title><path d="M-374.487 309.764v-8.524h2.566l2.032 4.473 1.963-4.473h2.523v8.524h-2.551v-5.406h-.042l-2.397 5.406h-.309l-2.411-5.354h-.028v5.354h-1.346zm17.243-8.525h1.347v5.919c.004.504-.111.969-.348 1.398-.237.428-.623.774-1.161 1.038-.537.263-1.254.397-2.151.405-.769-.008-1.42-.147-1.956-.42s-.944-.631-1.224-1.076a2.72 2.72 0 0 1-.423-1.463v-5.802h2.552v5.708c-.001.503.139.904.418 1.206.281.304.711.458 1.292.467.578-.009 1-.163 1.263-.467.265-.302.395-.703.391-1.206v-5.707zm3.001 7.048l1.276-.736c.159.318.374.608.643.871s.606.402 1.011.419c.368-.005.655-.097.862-.279.206-.182.312-.437.315-.761-.01-.294-.147-.533-.411-.719a4.769 4.769 0 0 0-.98-.516 12.812 12.812 0 0 1-1.17-.547 3.08 3.08 0 0 1-.981-.812c-.263-.335-.4-.772-.411-1.312.015-.887.305-1.588.872-2.104.566-.517 1.322-.78 2.269-.791.72-.002 1.32.134 1.803.405.483.273.905.695 1.267 1.266l-1.024.749a3.686 3.686 0 0 0-.68-.878c-.259-.244-.612-.373-1.058-.385-.363.005-.633.107-.806.303-.174.196-.26.456-.259.776.011.291.151.525.42.704.269.179.603.345 1.001.494.398.151.797.329 1.195.533.398.205.732.479 1.002.82.269.342.408.794.42 1.354-.007.604-.153 1.116-.439 1.541a2.765 2.765 0 0 1-1.169.975c-.492.224-1.049.337-1.673.339-.747.006-1.391-.125-1.931-.392-.54-.264-.995-.704-1.364-1.317zm14.354 1.477h-5.944v-8.524h5.775v1.158h-3.224v2.407h3.057v1.157h-3.057v2.644h3.393v1.158zm4.162-4.262c-.003.333.022.696.075 1.091s.153.773.298 1.133c.145.361.354.657.626.889.272.232.626.352 1.061.36.436-.009.789-.128 1.062-.36a2.23 2.23 0 0 0 .626-.889c.146-.359.245-.738.298-1.133a7.872 7.872 0 0 0 0-2.183 4.751 4.751 0 0 0-.298-1.133 2.245 2.245 0 0 0-.626-.889c-.272-.232-.626-.352-1.062-.36-.435.009-.789.128-1.061.36a2.23 2.23 0 0 0-.626.889c-.146.36-.245.738-.298 1.133a8.03 8.03 0 0 0-.075 1.092zm-2.775 0a4.281 4.281 0 0 1 .65-2.277 4.6 4.6 0 0 1 1.724-1.61c.726-.398 1.547-.603 2.463-.611.916.009 1.737.213 2.463.611.726.397 1.3.935 1.724 1.61.424.676.641 1.435.65 2.277a4.28 4.28 0 0 1-.65 2.276 4.585 4.585 0 0 1-1.724 1.61c-.726.398-1.547.603-2.463.611-.916-.009-1.737-.213-2.463-.611a4.607 4.607 0 0 1-1.724-1.61c-.425-.675-.641-1.434-.65-2.276zm14.998-3.105v-1.158h7.458v1.158h-2.454v7.366h-2.551v-7.366h-2.453zm11.466 7.367h-2.552v-8.524h2.552v3.565h2.719v-3.565h2.552v8.524h-2.552v-3.802h-2.719v3.802zm11.396-5.407l1.893-3.118h1.332l-2.636 4.289v4.235h-2.552v-4.078l-2.734-4.446h2.832l1.865 3.118zm3.841 3.93l1.276-.736c.159.318.373.608.643.871s.606.402 1.011.419c.368-.005.655-.097.862-.279.207-.182.312-.437.315-.761-.011-.294-.148-.533-.411-.719a4.743 4.743 0 0 0-.98-.516c-.39-.159-.78-.341-1.17-.547a3.065 3.065 0 0 1-.98-.812c-.264-.335-.401-.772-.411-1.312.014-.887.305-1.588.871-2.104.566-.517 1.323-.78 2.27-.791.719-.002 1.321.134 1.804.405.483.273.905.695 1.267 1.266l-1.023.749a3.765 3.765 0 0 0-.68-.878c-.26-.244-.613-.373-1.058-.385-.364.005-.632.107-.807.303-.174.196-.26.456-.259.776.011.291.151.525.42.704s.603.345 1.001.494c.398.151.797.329 1.195.533.399.205.732.479 1.001.82s.409.794.42 1.354c-.006.604-.153 1.116-.439 1.541s-.676.749-1.168.975c-.493.224-1.05.337-1.673.339-.747.006-1.391-.125-1.931-.392-.543-.264-.998-.704-1.366-1.317zm7.666 0l1.275-.736c.159.318.374.608.643.871.27.263.607.402 1.011.419.369-.005.656-.097.862-.279.207-.182.312-.437.315-.761-.01-.294-.148-.533-.412-.719a4.733 4.733 0 0 0-.979-.516c-.391-.159-.78-.341-1.171-.547a3.076 3.076 0 0 1-.98-.812c-.263-.335-.401-.772-.411-1.312.014-.887.304-1.588.871-2.104.565-.517 1.322-.78 2.269-.791.719-.002 1.32.134 1.803.405.483.273.905.695 1.267 1.266l-1.023.749a3.738 3.738 0 0 0-.68-.878c-.26-.244-.613-.373-1.058-.385-.364.005-.632.107-.806.303-.174.196-.261.456-.26.776.011.291.151.525.42.704.269.179.603.345 1.001.494.398.151.797.329 1.195.533a3.02 3.02 0 0 1 1.001.82c.27.342.41.794.42 1.354-.006.604-.152 1.116-.439 1.541s-.676.749-1.168.975c-.492.224-1.05.337-1.673.339-.747.006-1.391-.125-1.931-.392-.539-.264-.994-.704-1.362-1.317zm14.354 1.477h-5.944v-8.524h5.776v1.158h-3.225v2.407h3.056v1.157h-3.056v2.644h3.393v1.158zm1.933 0v-8.524h2.846l3.027 4.301h.028v-4.301h1.346v8.524h-1.473l-4.402-6.262h-.028v6.262h-1.344zm12.53-4.87v1.223h-3.407v-1.223h3.407zm1.817-3.655h4.361c.52.015 1.013.102 1.482.258.469.157.853.401 1.153.734.297.333.452.77.462 1.311-.01.516-.189.943-.534 1.287-.346.343-.793.545-1.345.607v.026c.395.078.759.214 1.095.404.338.19.609.434.815.729.208.296.314.642.32 1.037-.018.568-.195 1.008-.532 1.318a2.77 2.77 0 0 1-1.184.644 4.589 4.589 0 0 1-1.214.169h-4.88v-8.524h.001zm2.553 4.683v2.763h1.079c.383.004.71-.096.98-.301.269-.204.41-.538.422-1.002-.012-.446-.17-.799-.473-1.06-.304-.261-.678-.395-1.125-.4h-.883zm0-3.604v2.526h.953c.398.002.716-.096.952-.292.238-.196.359-.508.365-.932-.004-.418-.136-.737-.392-.962-.258-.225-.613-.339-1.066-.341h-.812v.001zm9.226 3.184a7.43 7.43 0 0 0 .075 1.091c.054.395.153.773.298 1.133.144.361.353.657.626.889.272.232.626.352 1.062.36.435-.009.788-.128 1.061-.36.272-.231.481-.527.625-.889.146-.359.246-.738.299-1.133a7.869 7.869 0 0 0 0-2.183 4.66 4.66 0 0 0-.299-1.133 2.253 2.253 0 0 0-.625-.889c-.273-.232-.626-.352-1.061-.36-.436.009-.79.128-1.062.36a2.211 2.211 0 0 0-.626.889c-.146.36-.245.738-.298 1.133a7.435 7.435 0 0 0-.075 1.092zm-2.777 0a4.281 4.281 0 0 1 .65-2.277 4.593 4.593 0 0 1 1.724-1.61c.726-.398 1.546-.603 2.463-.611.916.009 1.737.213 2.462.611.726.397 1.3.935 1.724 1.61.425.676.641 1.435.65 2.277-.009.842-.225 1.601-.65 2.276a4.6 4.6 0 0 1-1.724 1.61c-.726.398-1.547.603-2.462.611-.917-.009-1.737-.213-2.463-.611a4.585 4.585 0 0 1-1.724-1.61c-.424-.675-.64-1.434-.65-2.276zm14.088 4.262h-2.55v-8.524h4.569a3.964 3.964 0 0 1 1.509.308c.489.204.895.495 1.215.875.322.381.488.837.5 1.37-.013.614-.217 1.121-.615 1.519-.396.398-.907.668-1.53.81l2.202 3.644h-2.888l-2.257-4.341h.28c.403.006.767-.028 1.093-.104a1.4 1.4 0 0 0 .781-.456c.194-.229.294-.573.299-1.033-.011-.484-.169-.865-.475-1.143-.307-.275-.7-.417-1.18-.422h-.953v7.497zm6.996 0v-8.524h2.846l3.028 4.301h.028v-4.301h1.346v8.524h-1.473l-4.402-6.262h-.027v6.262h-1.346zm15.741 0h-5.943v-8.524h5.775v1.158h-3.225v2.407h3.057v1.157h-3.057v2.644h3.393v1.158zm1.794 0v-8.524h2.566l2.033 4.473 1.962-4.473h2.523v8.524h-2.55v-5.406h-.042l-2.398 5.406h-.308l-2.412-5.354h-.028v5.354h-1.346zm11.454 0v-8.524h2.551v8.524h-2.551zm4.37-1.477l1.275-.736c.159.318.374.608.645.871.268.263.605.402 1.011.419.366-.005.655-.097.862-.279.206-.182.312-.437.314-.761-.01-.294-.146-.533-.41-.719a4.727 4.727 0 0 0-.981-.516c-.39-.159-.78-.341-1.169-.547a3.055 3.055 0 0 1-.98-.812c-.264-.335-.402-.772-.412-1.312.015-.887.305-1.588.871-2.104.566-.517 1.323-.78 2.269-.791.72-.002 1.321.134 1.804.405.483.273.905.695 1.268 1.266l-1.024.749a3.788 3.788 0 0 0-.679-.878c-.261-.244-.614-.373-1.06-.385-.362.005-.631.107-.805.303-.174.196-.26.456-.259.776.01.291.15.525.418.704.27.179.604.345 1.002.494.398.151.797.329 1.195.533.398.205.732.479 1.001.82s.409.794.42 1.354c-.007.604-.152 1.116-.438 1.541a2.765 2.765 0 0 1-1.169.975c-.492.224-1.049.337-1.673.339-.747.006-1.39-.125-1.931-.392-.541-.264-.997-.704-1.365-1.317zm7.807-5.89v-1.158h7.752l-4.444 7.366h4.149v1.158h-7.766l4.499-7.366h-4.19zm11.886.776l-1.037 2.96h2.229l-1.163-2.96h-.029zm-2.341 6.591h-1.318l3.141-8.524h2.551l3.393 8.524h-2.832l-.996-2.474h-3.055l-.884 2.474z" fill="#FFF"/></svg>